<svg xmlns="http://www.w3.org/2000/svg" viewBox="0 0 32 32"><path d="M32,2.00014V2a2,2,0,0,0-2-2h0a3.70692,3.70692,0,0,0-2.62118,1.08573l-10.6717,10.6717a1,1,0,0,1-1.41422,0L4.62119,1.08573A3.70692,3.70692,0,0,0,2,0H2A2,2,0,0,0,0,2v.00014A3.70689,3.70689,0,0,0,1.08573,4.62131L11.75737,15.293a1,1,0,0,1,0,1.41422L1.08573,27.37881A3.70692,3.70692,0,0,0,0,30v0a2,2,0,0,0,2,2h.00014a3.70689,3.70689,0,0,0,2.62117-1.08573L15.29289,20.24269a1,1,0,0,1,1.41422,0L27.37869,30.91427A3.70689,3.70689,0,0,0,29.99986,32H30a2,2,0,0,0,2-2v0a3.70692,3.70692,0,0,0-1.08573-2.62118L20.24263,16.70717a1,1,0,0,1,0-1.41422L30.91427,4.62131A3.70689,3.70689,0,0,0,32,2.00014Z"/></svg>